<?xml version="1.0" encoding="UTF-8" standalone="no"?>
<!DOCTYPE svg PUBLIC "-//W3C//DTD SVG 1.1//EN"
 "http://www.w3.org/Graphics/SVG/1.1/DTD/svg11.dtd">
<!-- Generated by graphviz version 2.43.0 (0)
 -->
<!-- Title: %3 Pages: 1 -->
<svg width="432pt" height="111pt"
 viewBox="0.00 0.00 432.00 111.13" xmlns="http://www.w3.org/2000/svg" xmlns:xlink="http://www.w3.org/1999/xlink">
<g id="graph0" class="graph" transform="scale(1.19 1.19) rotate(0) translate(4 128.49)">
<title>%3</title>
<polygon fill="white" stroke="transparent" points="-4,4 -4,-128.49 511.07,-128.49 511.07,4 -4,4"/>
<!-- Data -->
<g id="node1" class="node">
<title>Data</title>
<polygon fill="none" stroke="black" points="130.85,-77 80.89,-77 65.45,-124.74 50.01,-77 0.05,-77 40.47,-47.49 25.03,0.25 65.45,-29.26 105.87,0.25 90.43,-47.49 130.85,-77"/>
<text text-anchor="middle" x="65.45" y="-58.55" font-family="Times,serif" font-size="14.00">Data</text>
</g>
<!-- Generative Model -->
<g id="node2" class="node">
<title>Generative Model</title>
<ellipse fill="none" stroke="black" cx="260.49" cy="-62.25" rx="93.68" ry="18"/>
<text text-anchor="middle" x="260.49" y="-58.55" font-family="Times,serif" font-size="14.00">Generative Model</text>
</g>
<!-- Data&#45;&gt;Generative Model -->
<g id="edge1" class="edge">
<title>Data&#45;&gt;Generative Model</title>
<path fill="none" stroke="black" d="M110.74,-62.25C124.57,-62.25 140.44,-62.25 156.55,-62.25"/>
<polygon fill="black" stroke="black" points="156.6,-65.75 166.6,-62.25 156.6,-58.75 156.6,-65.75"/>
</g>
<!-- Inference -->
<g id="node3" class="node">
<title>Inference</title>
<ellipse fill="none" stroke="black" cx="448.58" cy="-89.25" rx="54.69" ry="18"/>
<text text-anchor="middle" x="448.58" y="-85.55" font-family="Times,serif" font-size="14.00">Inference</text>
</g>
<!-- Generative Model&#45;&gt;Inference -->
<g id="edge2" class="edge">
<title>Generative Model&#45;&gt;Inference</title>
<path fill="none" stroke="black" d="M335.57,-73C353.03,-75.53 371.42,-78.2 388.14,-80.62"/>
<polygon fill="black" stroke="black" points="387.91,-84.13 398.31,-82.1 388.91,-77.2 387.91,-84.13"/>
</g>
<!-- Prediction -->
<g id="node4" class="node">
<title>Prediction</title>
<ellipse fill="none" stroke="black" cx="448.58" cy="-35.25" rx="58.49" ry="18"/>
<text text-anchor="middle" x="448.58" y="-31.55" font-family="Times,serif" font-size="14.00">Prediction</text>
</g>
<!-- Generative Model&#45;&gt;Prediction -->
<g id="edge3" class="edge">
<title>Generative Model&#45;&gt;Prediction</title>
<path fill="none" stroke="black" d="M335.57,-51.5C351.95,-49.12 369.15,-46.63 385.02,-44.32"/>
<polygon fill="black" stroke="black" points="385.84,-47.74 395.23,-42.84 384.83,-40.81 385.84,-47.74"/>
</g>
</g>
</svg>
