<?xml version="1.0" encoding="UTF-8" standalone="no"?>
<!DOCTYPE svg PUBLIC "-//W3C//DTD SVG 1.1//EN"
 "http://www.w3.org/Graphics/SVG/1.1/DTD/svg11.dtd">
<!-- Generated by graphviz version 2.43.0 (0)
 -->
<!-- Title: %3 Pages: 1 -->
<svg width="432pt" height="109pt"
 viewBox="0.00 0.00 432.00 109.16" xmlns="http://www.w3.org/2000/svg" xmlns:xlink="http://www.w3.org/1999/xlink">
<g id="graph0" class="graph" transform="scale(1.94 1.94) rotate(0) translate(4 207.84)">
<title>%3</title>
<polygon fill="white" stroke="transparent" points="-4,4 -4,-207.84 834.35,-207.84 834.35,4 -4,4"/>
<!-- Phenomenon -->
<g id="node1" class="node">
<title>Phenomenon</title>
<ellipse fill="none" stroke="black" cx="75.39" cy="-129" rx="70.7" ry="70.7"/>
<ellipse fill="none" stroke="black" cx="75.39" cy="-129" rx="74.69" ry="74.69"/>
<text text-anchor="middle" x="75.39" y="-125.3" font-family="Times,serif" font-size="14.00">Phenomenon</text>
</g>
<!-- Data Generating Process -->
<g id="node4" class="node">
<title>Data Generating Process</title>
<ellipse fill="none" stroke="black" cx="313.53" cy="-73" rx="126.98" ry="18"/>
<text text-anchor="middle" x="313.53" y="-69.3" font-family="Times,serif" font-size="14.00">Data Generating Process</text>
</g>
<!-- Phenomenon&#45;&gt;Data Generating Process -->
<g id="edge1" class="edge">
<title>Phenomenon&#45;&gt;Data Generating Process</title>
<path fill="none" stroke="black" d="M148.52,-111.89C176.79,-105.19 209.22,-97.5 237.74,-90.73"/>
<polygon fill="black" stroke="black" points="238.73,-94.1 247.65,-88.38 237.12,-87.29 238.73,-94.1"/>
</g>
<!-- Measurement -->
<g id="node2" class="node">
<title>Measurement</title>
<ellipse fill="none" stroke="black" cx="75.39" cy="-18" rx="75.29" ry="18"/>
<text text-anchor="middle" x="75.39" y="-14.3" font-family="Times,serif" font-size="14.00">Measurement</text>
</g>
<!-- Measurement&#45;&gt;Data Generating Process -->
<g id="edge2" class="edge">
<title>Measurement&#45;&gt;Data Generating Process</title>
<path fill="none" stroke="black" d="M129.98,-30.48C161.43,-37.81 201.7,-47.19 236.41,-55.27"/>
<polygon fill="black" stroke="black" points="235.98,-58.76 246.51,-57.62 237.56,-51.95 235.98,-58.76"/>
</g>
<!-- Sampling Process -->
<g id="node3" class="node">
<title>Sampling Process</title>
<ellipse fill="none" stroke="black" cx="569.86" cy="-73" rx="93.68" ry="18"/>
<text text-anchor="middle" x="569.86" y="-69.3" font-family="Times,serif" font-size="14.00">Sampling Process</text>
</g>
<!-- Data -->
<g id="node5" class="node">
<title>Data</title>
<polygon fill="none" stroke="black" points="830.3,-87.75 780.34,-87.75 764.9,-135.5 749.46,-87.75 699.5,-87.75 739.92,-58.25 724.48,-10.5 764.9,-40.01 805.32,-10.5 789.88,-58.25 830.3,-87.75"/>
<text text-anchor="middle" x="764.9" y="-69.3" font-family="Times,serif" font-size="14.00">Data</text>
</g>
<!-- Sampling Process&#45;&gt;Data -->
<g id="edge4" class="edge">
<title>Sampling Process&#45;&gt;Data</title>
<path fill="none" stroke="black" d="M663.7,-73C679.4,-73 695.23,-73 709.53,-73"/>
<polygon fill="black" stroke="black" points="709.64,-76.5 719.64,-73 709.64,-69.5 709.64,-76.5"/>
</g>
<!-- Data Generating Process&#45;&gt;Sampling Process -->
<g id="edge3" class="edge">
<title>Data Generating Process&#45;&gt;Sampling Process</title>
<path fill="none" stroke="black" d="M440.57,-73C449.1,-73 457.63,-73 466.01,-73"/>
<polygon fill="black" stroke="black" points="466.16,-76.5 476.16,-73 466.16,-69.5 466.16,-76.5"/>
</g>
</g>
</svg>
