<?xml version="1.0" encoding="UTF-8" standalone="no"?>
<!DOCTYPE svg PUBLIC "-//W3C//DTD SVG 1.1//EN"
 "http://www.w3.org/Graphics/SVG/1.1/DTD/svg11.dtd">
<!-- Generated by graphviz version 6.0.1 (20220911.1526)
 -->
<!-- Pages: 1 -->
<svg width="432pt" height="112pt"
 viewBox="0.00 0.00 432.00 111.97" xmlns="http://www.w3.org/2000/svg" xmlns:xlink="http://www.w3.org/1999/xlink">
<g id="graph0" class="graph" transform="scale(0.994622 0.994622) rotate(0) translate(4 108.58)">
<polygon fill="white" stroke="none" points="-4,4 -4,-108.58 430.34,-108.58 430.34,4 -4,4"/>
<!-- Data -->
<g id="node1" class="node">
<title>Data</title>
<polygon fill="none" stroke="black" points="109.94,-64.58 67.95,-64.58 54.98,-104.36 42.01,-64.58 0.02,-64.58 33.99,-39.99 21.01,-0.21 54.98,-24.8 88.94,-0.21 75.97,-39.99 109.94,-64.58"/>
<text text-anchor="middle" x="54.98" y="-48.59" font-family="Times,serif" font-size="14.00">Data</text>
</g>
<!-- Generative Model -->
<g id="node2" class="node">
<title>Generative Model</title>
<ellipse fill="none" stroke="black" cx="221.35" cy="-52.29" rx="75.29" ry="18"/>
<text text-anchor="middle" x="221.35" y="-48.59" font-family="Times,serif" font-size="14.00">Generative Model</text>
</g>
<!-- Data&#45;&gt;Generative Model -->
<g id="edge1" class="edge">
<title>Data&#45;&gt;Generative Model</title>
<path fill="none" stroke="black" d="M93.28,-52.29C105.98,-52.29 120.74,-52.29 135.61,-52.29"/>
<polygon fill="black" stroke="black" points="135.9,-55.79 145.9,-52.29 135.9,-48.79 135.9,-55.79"/>
</g>
<!-- Inference -->
<g id="node3" class="node">
<title>Inference</title>
<ellipse fill="none" stroke="black" cx="379.54" cy="-79.29" rx="44.39" ry="18"/>
<text text-anchor="middle" x="379.54" y="-75.59" font-family="Times,serif" font-size="14.00">Inference</text>
</g>
<!-- Generative Model&#45;&gt;Inference -->
<g id="edge2" class="edge">
<title>Generative Model&#45;&gt;Inference</title>
<path fill="none" stroke="black" d="M283.18,-62.8C298.07,-65.38 313.84,-68.1 328.18,-70.58"/>
<polygon fill="black" stroke="black" points="327.88,-74.08 338.33,-72.34 329.07,-67.18 327.88,-74.08"/>
</g>
<!-- Prediction -->
<g id="node4" class="node">
<title>Prediction</title>
<ellipse fill="none" stroke="black" cx="379.54" cy="-25.29" rx="46.59" ry="18"/>
<text text-anchor="middle" x="379.54" y="-21.59" font-family="Times,serif" font-size="14.00">Prediction</text>
</g>
<!-- Generative Model&#45;&gt;Prediction -->
<g id="edge3" class="edge">
<title>Generative Model&#45;&gt;Prediction</title>
<path fill="none" stroke="black" d="M283.18,-41.77C297.52,-39.29 312.67,-36.67 326.58,-34.27"/>
<polygon fill="black" stroke="black" points="327.2,-37.72 336.45,-32.56 326,-30.82 327.2,-37.72"/>
</g>
</g>
</svg>
