<?xml version="1.0" encoding="UTF-8" standalone="no"?>
<!DOCTYPE svg PUBLIC "-//W3C//DTD SVG 1.1//EN"
 "http://www.w3.org/Graphics/SVG/1.1/DTD/svg11.dtd">
<!-- Generated by graphviz version 2.49.3 (20211023.0002)
 -->
<!-- Pages: 1 -->
<svg width="432pt" height="112pt"
 viewBox="0.00 0.00 432.00 112.42" xmlns="http://www.w3.org/2000/svg" xmlns:xlink="http://www.w3.org/1999/xlink">
<g id="graph0" class="graph" transform="scale(0.98 0.98) rotate(0) translate(4 111.07)">
<polygon fill="white" stroke="transparent" points="-4,4 -4,-111.07 438.15,-111.07 438.15,4 -4,4"/>
<!-- Data -->
<g id="node1" class="node">
<title>Data</title>
<polygon fill="none" stroke="black" points="112.36,-66.18 69.53,-66.18 56.29,-107.1 43.05,-66.18 0.21,-66.18 34.87,-40.89 21.63,0.03 56.29,-25.26 90.94,0.03 77.71,-40.89 112.36,-66.18"/>
<text text-anchor="middle" x="56.29" y="-49.83" font-family="Times,serif" font-size="14.00">Data</text>
</g>
<!-- Generative Model -->
<g id="node2" class="node">
<title>Generative Model</title>
<ellipse fill="none" stroke="black" cx="225.27" cy="-53.53" rx="76.89" ry="18"/>
<text text-anchor="middle" x="225.27" y="-49.83" font-family="Times,serif" font-size="14.00">Generative Model</text>
</g>
<!-- Data&#45;&gt;Generative Model -->
<g id="edge1" class="edge">
<title>Data&#45;&gt;Generative Model</title>
<path fill="none" stroke="black" d="M95.6,-53.53C108.35,-53.53 123.11,-53.53 137.99,-53.53"/>
<polygon fill="black" stroke="black" points="138.29,-57.03 148.29,-53.53 138.29,-50.03 138.29,-57.03"/>
</g>
<!-- Inference -->
<g id="node3" class="node">
<title>Inference</title>
<ellipse fill="none" stroke="black" cx="386.06" cy="-80.53" rx="44.69" ry="18"/>
<text text-anchor="middle" x="386.06" y="-76.83" font-family="Times,serif" font-size="14.00">Inference</text>
</g>
<!-- Generative Model&#45;&gt;Inference -->
<g id="edge2" class="edge">
<title>Generative Model&#45;&gt;Inference</title>
<path fill="none" stroke="black" d="M288.12,-64.05C303.4,-66.65 319.59,-69.4 334.28,-71.9"/>
<polygon fill="black" stroke="black" points="333.73,-75.36 344.18,-73.58 334.91,-68.45 333.73,-75.36"/>
</g>
<!-- Prediction -->
<g id="node4" class="node">
<title>Prediction</title>
<ellipse fill="none" stroke="black" cx="386.06" cy="-26.53" rx="48.19" ry="18"/>
<text text-anchor="middle" x="386.06" y="-22.83" font-family="Times,serif" font-size="14.00">Prediction</text>
</g>
<!-- Generative Model&#45;&gt;Prediction -->
<g id="edge3" class="edge">
<title>Generative Model&#45;&gt;Prediction</title>
<path fill="none" stroke="black" d="M288.12,-43.02C302.55,-40.56 317.8,-37.97 331.82,-35.58"/>
<polygon fill="black" stroke="black" points="332.52,-39.02 341.79,-33.89 331.34,-32.12 332.52,-39.02"/>
</g>
</g>
</svg>
