<?xml version="1.0" encoding="UTF-8" standalone="no"?>
<!DOCTYPE svg PUBLIC "-//W3C//DTD SVG 1.1//EN"
 "http://www.w3.org/Graphics/SVG/1.1/DTD/svg11.dtd">
<!-- Generated by graphviz version 6.0.1 (20220911.1526)
 -->
<!-- Pages: 1 -->
<svg width="432pt" height="115pt"
 viewBox="0.00 0.00 432.00 114.85" xmlns="http://www.w3.org/2000/svg" xmlns:xlink="http://www.w3.org/1999/xlink">
<g id="graph0" class="graph" transform="scale(0.623542 0.623542) rotate(0) translate(4 180.19)">
<polygon fill="white" stroke="none" points="-4,4 -4,-180.19 688.82,-180.19 688.82,4 -4,4"/>
<!-- Phenomenon -->
<g id="node1" class="node">
<title>Phenomenon</title>
<ellipse fill="none" stroke="black" cx="61.19" cy="-115" rx="57.38" ry="57.38"/>
<ellipse fill="none" stroke="black" cx="61.19" cy="-115" rx="61.39" ry="61.39"/>
<text text-anchor="middle" x="61.19" y="-111.3" font-family="Times,serif" font-size="14.00">Phenomenon</text>
</g>
<!-- Data Generating Process -->
<g id="node4" class="node">
<title>Data Generating Process</title>
<ellipse fill="none" stroke="black" cx="256.53" cy="-66" rx="98.28" ry="18"/>
<text text-anchor="middle" x="256.53" y="-62.3" font-family="Times,serif" font-size="14.00">Data Generating Process</text>
</g>
<!-- Phenomenon&#45;&gt;Data Generating Process -->
<g id="edge1" class="edge">
<title>Phenomenon&#45;&gt;Data Generating Process</title>
<path fill="none" stroke="black" d="M120.73,-100.17C142.03,-94.77 166.27,-88.62 188.27,-83.05"/>
<polygon fill="black" stroke="black" points="189.36,-86.38 198.2,-80.53 187.64,-79.6 189.36,-86.38"/>
</g>
<!-- Measurement -->
<g id="node2" class="node">
<title>Measurement</title>
<ellipse fill="none" stroke="black" cx="61.19" cy="-18" rx="59.59" ry="18"/>
<text text-anchor="middle" x="61.19" y="-14.3" font-family="Times,serif" font-size="14.00">Measurement</text>
</g>
<!-- Measurement&#45;&gt;Data Generating Process -->
<g id="edge2" class="edge">
<title>Measurement&#45;&gt;Data Generating Process</title>
<path fill="none" stroke="black" d="M108.01,-29.38C131.78,-35.28 161.27,-42.6 187.63,-49.14"/>
<polygon fill="black" stroke="black" points="187.01,-52.59 197.56,-51.61 188.69,-45.8 187.01,-52.59"/>
</g>
<!-- Sampling Process -->
<g id="node3" class="node">
<title>Sampling Process</title>
<ellipse fill="none" stroke="black" cx="464.77" cy="-66" rx="74.19" ry="18"/>
<text text-anchor="middle" x="464.77" y="-62.3" font-family="Times,serif" font-size="14.00">Sampling Process</text>
</g>
<!-- Data -->
<g id="node5" class="node">
<title>Data</title>
<polygon fill="none" stroke="black" points="684.8,-78.29 642.81,-78.29 629.84,-118.08 616.86,-78.29 574.88,-78.29 608.85,-53.71 595.87,-13.92 629.84,-38.51 663.8,-13.92 650.83,-53.71 684.8,-78.29"/>
<text text-anchor="middle" x="629.84" y="-62.3" font-family="Times,serif" font-size="14.00">Data</text>
</g>
<!-- Sampling Process&#45;&gt;Data -->
<g id="edge4" class="edge">
<title>Sampling Process&#45;&gt;Data</title>
<path fill="none" stroke="black" d="M539.19,-66C553.47,-66 568.08,-66 581.25,-66"/>
<polygon fill="black" stroke="black" points="581.47,-69.5 591.47,-66 581.47,-62.5 581.47,-69.5"/>
</g>
<!-- Data Generating Process&#45;&gt;Sampling Process -->
<g id="edge3" class="edge">
<title>Data Generating Process&#45;&gt;Sampling Process</title>
<path fill="none" stroke="black" d="M354.91,-66C363.44,-66 372.02,-66 380.41,-66"/>
<polygon fill="black" stroke="black" points="380.55,-69.5 390.55,-66 380.55,-62.5 380.55,-69.5"/>
</g>
</g>
</svg>
