<?xml version="1.0" encoding="UTF-8" standalone="no"?>
<!DOCTYPE svg PUBLIC "-//W3C//DTD SVG 1.1//EN"
 "http://www.w3.org/Graphics/SVG/1.1/DTD/svg11.dtd">
<!-- Generated by graphviz version 2.49.3 (20211023.0002)
 -->
<!-- Pages: 1 -->
<svg width="432pt" height="114pt"
 viewBox="0.00 0.00 432.00 114.14" xmlns="http://www.w3.org/2000/svg" xmlns:xlink="http://www.w3.org/1999/xlink">
<g id="graph0" class="graph" transform="scale(0.61 0.61) rotate(0) translate(4 182.49)">
<polygon fill="white" stroke="transparent" points="-4,4 -4,-182.49 701.83,-182.49 701.83,4 -4,4"/>
<!-- Phenomenon -->
<g id="node1" class="node">
<title>Phenomenon</title>
<ellipse fill="none" stroke="black" cx="62.49" cy="-116" rx="58.49" ry="58.49"/>
<ellipse fill="none" stroke="black" cx="62.49" cy="-116" rx="62.49" ry="62.49"/>
<text text-anchor="middle" x="62.49" y="-112.3" font-family="Times,serif" font-size="14.00">Phenomenon</text>
</g>
<!-- Data Generating Process -->
<g id="node4" class="node">
<title>Data Generating Process</title>
<ellipse fill="none" stroke="black" cx="261.73" cy="-67" rx="100.98" ry="18"/>
<text text-anchor="middle" x="261.73" y="-63.3" font-family="Times,serif" font-size="14.00">Data Generating Process</text>
</g>
<!-- Phenomenon&#45;&gt;Data Generating Process -->
<g id="edge1" class="edge">
<title>Phenomenon&#45;&gt;Data Generating Process</title>
<path fill="none" stroke="black" d="M123.21,-101.17C145.03,-95.74 169.89,-89.57 192.41,-83.97"/>
<polygon fill="black" stroke="black" points="193.38,-87.34 202.24,-81.53 191.69,-80.55 193.38,-87.34"/>
</g>
<!-- Measurement -->
<g id="node2" class="node">
<title>Measurement</title>
<ellipse fill="none" stroke="black" cx="62.49" cy="-18" rx="60.39" ry="18"/>
<text text-anchor="middle" x="62.49" y="-14.3" font-family="Times,serif" font-size="14.00">Measurement</text>
</g>
<!-- Measurement&#45;&gt;Data Generating Process -->
<g id="edge2" class="edge">
<title>Measurement&#45;&gt;Data Generating Process</title>
<path fill="none" stroke="black" d="M109.74,-29.49C134.28,-35.59 164.91,-43.2 192.17,-49.97"/>
<polygon fill="black" stroke="black" points="191.49,-53.4 202.04,-52.42 193.17,-46.61 191.49,-53.4"/>
</g>
<!-- Sampling Process -->
<g id="node3" class="node">
<title>Sampling Process</title>
<ellipse fill="none" stroke="black" cx="473.87" cy="-67" rx="75.29" ry="18"/>
<text text-anchor="middle" x="473.87" y="-63.3" font-family="Times,serif" font-size="14.00">Sampling Process</text>
</g>
<!-- Data -->
<g id="node5" class="node">
<title>Data</title>
<polygon fill="none" stroke="black" points="697.62,-79.65 654.78,-79.65 641.55,-120.57 628.31,-79.65 585.47,-79.65 620.13,-54.35 606.89,-13.43 641.55,-38.72 676.2,-13.43 662.97,-54.35 697.62,-79.65"/>
<text text-anchor="middle" x="641.55" y="-63.3" font-family="Times,serif" font-size="14.00">Data</text>
</g>
<!-- Sampling Process&#45;&gt;Data -->
<g id="edge4" class="edge">
<title>Sampling Process&#45;&gt;Data</title>
<path fill="none" stroke="black" d="M549.47,-67C563.97,-67 578.81,-67 592.2,-67"/>
<polygon fill="black" stroke="black" points="592.58,-70.5 602.58,-67 592.58,-63.5 592.58,-70.5"/>
</g>
<!-- Data Generating Process&#45;&gt;Sampling Process -->
<g id="edge3" class="edge">
<title>Data Generating Process&#45;&gt;Sampling Process</title>
<path fill="none" stroke="black" d="M362.57,-67C371.15,-67 379.78,-67 388.22,-67"/>
<polygon fill="black" stroke="black" points="388.42,-70.5 398.42,-67 388.42,-63.5 388.42,-70.5"/>
</g>
</g>
</svg>
